#Sceelix OBJ Exporter - Sceelix_Abbey_WalkMesh

# 28 Vertices
v 4.999999 8.660254 0
v -4.999999 8.660254 0
v -10 8.742279E-07 0
v -5 -8.660254 0
v 5 -8.660254 0
v 10 -2.449213E-15 0
v 5 -8.660254 9
v 10 -2.449213E-15 9
v -10 8.742279E-07 9
v -5 -8.660254 9
v -4.999999 8.660254 9
v 4.999999 8.660254 9
v 4.999997 -38.66026 0
v -5.000003 -38.66026 0
v -5.000003 -38.66026 9
v 4.999997 -38.66026 9
v 7.999997 -38.66026 0
v 8 -8.660254 0
v -8 -8.660254 0
v -8.000004 -38.66026 0
v 7.999997 -38.66026 5
v 8 -8.660254 5
v 5 -8.660254 5
v 4.999997 -38.66026 5
v -8 -8.660254 5.000001
v -8.000004 -38.66026 4.999999
v -5 -8.660254 5.000001
v -5.000003 -38.66026 4.999999

# 9 Normals
vn 0 0 1
vn -0.8660254 0.5 0
vn 0.8660254 0.5 0
vn 0.8660254 -0.5000001 0
vn 0 -1 0
vn -0.8660254 -0.5000001 0
vn 0 1 0
vn -1 7.629394E-08 0
vn 1 -1.271566E-07 0

# 1 Texture Coordinates
vt 0 0

# 16 Faces
g Group
f 1/1/1 2/1/1 3/1/1 4/1/1 5/1/1 6/1/1
f 6/1/2 5/1/2 7/1/2 8/1/2
f 4/1/3 3/1/3 9/1/3 10/1/3
f 3/1/4 2/1/4 11/1/4 9/1/4
f 2/1/5 1/1/5 12/1/5 11/1/5
f 1/1/6 6/1/6 8/1/6 12/1/6
f 13/1/7 14/1/7 15/1/7 16/1/7
f 14/1/1 13/1/1 5/1/1 4/1/1
f 17/1/1 18/1/1 5/1/1 13/1/1
f 19/1/1 20/1/1 14/1/1 4/1/1
f 17/1/8 21/1/8 22/1/8 18/1/8
f 18/1/5 22/1/5 23/1/5 5/1/5
f 21/1/7 17/1/7 13/1/7 24/1/7
f 20/1/9 19/1/9 25/1/9 26/1/9
f 25/1/5 19/1/5 4/1/5 27/1/5
f 20/1/7 26/1/7 28/1/7 14/1/7

